# xmcd
#
# Track frame offsets:
#	150
#	14810
#	28350
#	42165
#	54167
#	65607
#	76097
#	90002
#	101156
#	114711
#	126284
#	136911
#	149269
#	162479
#	174459
#	187739
#	200886
#	213154
#	228351
#	243851
#	257551
#	272397
#	285216
#	301729
#	321512
#
# Disc length: 4517
#
# Revision: 3
# Processed by: cddbd v1.5.1PL0 Copyright (c) Steve Scherf et al.
# Submitted via: audiograbber 1.82.02
# Normalized: r2:DSETVAR1
#
DISCID=5811a319
DTITLE=Various Artist - Ultimate Coutry Party 2 +
DYEAR=1900
DGENRE=
TTITLE0=Brooks and Dunn - My Maria
TTITLE1=Mindy McCready - Guys Do It All The Time
TTITLE2=Blackhawk - There You Have It
TTITLE3=Neal McCoy - Wink
TTITLE4=Alan Jackson - Little Bitty
TTITLE5=Diamond Rio - Unbelievable
TTITLE6=Terri Clark - Better Things To Do
TTITLE7=BR5-49 - Honky Tonk Song
TTITLE8=Travis Tritt - Country Club
TTITLE9=Joe Diffie - Texas Size Heartache
TTITLE10=Toby Keith - You Ain't Much Fun
TTITLE11=Pam Tillis - Mi Vida Loca (My Crazy Life)
TTITLE12=David Ball - Thinkin' Problem
TTITLE13=Daryle Singletary - Too Much Fun
TTITLE14=Trace Adkins - I Left Something Turned On At Home
TTITLE15=Mark Chesnutt - Bubba Shot The Jukebox
TTITLE16=Aaron Tippin - There Ain't Nothin' Wrong With The Radio
TTITLE17=Collin Raye - Little Red Rodeo
TTITLE18=Tim McGraw - I Like It, I Love It
TTITLE19=Traci Byrd - Ten Rounds With Jose Cuervo
TTITLE20=Reba McEntire - Take It Back
TTITLE21=Patty Loveless - I Try To Think About Elvis
TTITLE22=Dan Seals - Bop
TTITLE23=Alison Kraus - When You Say Nothing At All
TTITLE24=Ray Price - For The Good Times
EXTD=
EXTT0=
EXTT1=
EXTT2=
EXTT3=
EXTT4=
EXTT5=
EXTT6=
EXTT7=
EXTT8=
EXTT9=
EXTT10=
EXTT11=
EXTT12=
EXTT13=
EXTT14=
EXTT15=
EXTT16=
EXTT17=
EXTT18=
EXTT19=
EXTT20=
EXTT21=
EXTT22=
EXTT23=
EXTT24=
PLAYORDER=
